Coordinates
version=1
nRows=14
nColumns=24
inDegrees=yes

Units are S.I. units (second, meters, Newtons, ...)
Angles are in degrees.

endheader
time	pelvis_tilt	pelvis_list	pelvis_rotation	pelvis_tx	pelvis_ty	pelvis_tz	hip_flexion_r	hip_adduction_r	hip_rotation_r	knee_angle_r	ankle_angle_r	subtalar_angle_r	mtp_angle_r	hip_flexion_l	hip_adduction_l	hip_rotation_l	knee_angle_l	ankle_angle_l	subtalar_angle_l	mtp_angle_l	lumbar_extension	lumbar_bending	lumbar_rotation
      1.88783333	     -0.27276303	      3.95890058	     -5.25032652	      1.45297974	      1.01630572	      0.24169295	     18.94237474	     -6.15703293	     -3.66505927	    -56.37635678	      7.28267162	    -17.26660060	     -1.45424270	     11.63048206	      9.54312738	     -0.06386778	    -20.02693573	     10.40916308	    -10.78209984	      2.24185827	      2.49566386	     -5.75543977	      4.10312194
      1.89200000	     -0.29178783	      3.93664061	     -5.11898603	      1.45717440	      1.01665415	      0.24131933	     19.49980138	     -6.06895518	     -3.62112794	    -55.76561736	      7.45178069	    -17.32617125	     -1.48217801	     11.28026654	      9.57431743	      0.05921677	    -19.82374910	     10.50936370	    -10.71590561	      2.24130529	      2.45917164	     -5.73809678	      4.02821209
      1.89616667	     -0.31684708	      3.88909554	     -4.94974544	      1.46132611	      1.01698003	      0.24090675	     20.03849916	     -5.96325694	     -3.61489828	    -55.11146191	      7.56533157	    -17.36066985	     -1.60912771	     10.95248828	      9.58195083	      0.21232436	    -19.66347228	     10.62356371	    -10.65657518	      2.23280905	      2.38225371	     -5.71257388	      3.64823418
      1.90033333	     -0.33294226	      3.84786451	     -4.79861421	      1.46552926	      1.01728529	      0.24052635	     20.55735245	     -5.86046717	     -3.58455150	    -54.43635299	      7.66056303	    -17.37329846	     -1.72371859	     10.60694088	      9.59454524	      0.36253248	    -19.48273244	     10.73409903	    -10.60348111	      2.22586478	      2.32398571	     -5.67934099	      3.41579111
      1.90450000	     -0.36287054	      3.82394450	     -4.66591619	      1.46968357	      1.01752794	      0.24018397	     21.09502769	     -5.76860585	     -3.52588184	    -53.75310844	      7.75455858	    -17.34546899	     -1.74262791	     10.27833523	      9.62014778	      0.49303259	    -19.29471933	     10.83946229	    -10.55513919	      2.22720115	      2.29751424	     -5.65147770	      3.34964330
      1.90866667	     -0.42618667	      3.77958473	     -4.50778788	      1.47385710	      1.01770010	      0.23981332	     21.64587897	     -5.65789351	     -3.48440270	    -53.03486516	      7.79509469	    -17.29730983	     -1.81127424	      9.99885147	      9.62608742	      0.66091985	    -19.14365252	     10.93790480	    -10.55406005	      2.22352829	      2.27127532	     -5.61663927	      3.02704651
      1.91283333	     -0.44549688	      3.73872933	     -4.36485278	      1.47800338	      1.01790731	      0.23948426	     22.14129683	     -5.55003768	     -3.42641360	    -52.29546019	      7.82884529	    -17.22273437	     -1.86771358	      9.66756034	      9.63660270	      0.82615250	    -18.98043583	     11.03981465	    -10.54147286	      2.21923545	      2.20780033	     -5.58615843	      2.81672526
      1.91700000	     -0.49393481	      3.70629793	     -4.22268757	      1.48216909	      1.01804318	      0.23916321	     22.65989295	     -5.44918742	     -3.35871218	    -51.53953426	      7.83660484	    -17.11708212	     -1.87999171	      9.37224808	      9.65174447	      0.98281898	    -18.82089795	     11.15110487	    -10.51850579	      2.22087464	      2.20373419	     -5.55344355	      2.74520823
      1.92116667	     -0.56257424	      3.66852607	     -4.06932002	      1.48627435	      1.01810487	      0.23884466	     23.19103390	     -5.34173693	     -3.29127355	    -50.76678886	      7.82332454	    -17.00123985	     -1.90831914	      9.11473603	      9.66286712	      1.16852668	    -18.68777361	     11.22654322	    -10.56864079	      2.21917123	      2.18255042	     -5.53171501	      2.44123923
      1.92533333	     -0.59848801	      3.62333443	     -3.92379334	      1.49044513	      1.01819324	      0.23855182	     23.66929932	     -5.22537589	     -3.20914692	    -49.97494183	      7.78620910	    -16.84411134	     -1.91548258	      8.81379693	      9.66501539	      1.33986579	    -18.55546971	     11.33875983	    -10.58005778	      2.22062519	      2.14271528	     -5.48954180	      2.33836252
      1.92950000	     -0.66053317	      3.58442720	     -3.77015890	      1.49459139	      1.01822229	      0.23825410	     24.16312665	     -5.12110307	     -3.13778949	    -49.15837963	      7.73622546	    -16.66781112	     -1.91670712	      8.54665572	      9.67492739	      1.53826080	    -18.42674443	     11.43148122	    -10.62544132	      2.22147651	      2.13060497	     -5.45242465	      2.18138939
      1.93366667	     -0.73098618	      3.54411758	     -3.62640314	      1.49870289	      1.01819863	      0.23799046	     24.65930480	     -5.01024329	     -3.05351606	    -48.32578302	      7.67062469	    -16.48003687	     -1.90906325	      8.29922209	      9.68026646	      1.72807307	    -18.31209250	     11.51364265	    -10.70693213	      2.22148708	      2.12433568	     -5.42263613	      1.97331795
      1.93783333	     -0.78099009	      3.50535671	     -3.46304237	      1.50280530	      1.01817698	      0.23771369	     25.12367160	     -4.90925329	     -2.97559306	    -47.48268451	      7.56953001	    -16.28055929	     -1.89666889	      8.02827394	      9.69009856	      1.94046707	    -18.19864147	     11.60624970	    -10.76020831	      2.22283377	      2.09233796	     -5.39321149	      1.82097272
      1.94200000	     -0.83305799	      3.47210835	     -3.32707765	      1.50696892	      1.01814333	      0.23749050	     25.57509876	     -4.80595965	     -2.87254156	    -46.62060066	      7.45055586	    -16.06096255	     -1.88619614	      7.75010023	      9.69882539	      2.11320748	    -18.06687125	     11.70903545	    -10.80203337	      2.22475126	      2.09302543	     -5.37089263	      1.71317745
